<svg id="visual" viewBox="0 0 960 300" width="960" height="300" xmlns="http://www.w3.org/2000/svg" xmlns:xlink="http://www.w3.org/1999/xlink" version="1.1"><rect x="0" y="0" width="960" height="300" fill="#001220"></rect><path d="M0 80L22.8 79.3C45.7 78.7 91.3 77.3 137 82.2C182.7 87 228.3 98 274 103.5C319.7 109 365.3 109 411.2 104.7C457 100.3 503 91.7 548.8 92.2C594.7 92.7 640.3 102.3 686 107.3C731.7 112.3 777.3 112.7 823 109.7C868.7 106.7 914.3 100.3 937.2 97.2L960 94L960 0L937.2 0C914.3 0 868.7 0 823 0C777.3 0 731.7 0 686 0C640.3 0 594.7 0 548.8 0C503 0 457 0 411.2 0C365.3 0 319.7 0 274 0C228.3 0 182.7 0 137 0C91.3 0 45.7 0 22.8 0L0 0Z" fill="#fa7268"></path><path d="M0 99L22.8 94.8C45.7 90.7 91.3 82.3 137 77.5C182.7 72.7 228.3 71.3 274 71.2C319.7 71 365.3 72 411.2 74.2C457 76.3 503 79.7 548.8 83.8C594.7 88 640.3 93 686 95.3C731.7 97.7 777.3 97.3 823 96.8C868.7 96.3 914.3 95.7 937.2 95.3L960 95L960 0L937.2 0C914.3 0 868.7 0 823 0C777.3 0 731.7 0 686 0C640.3 0 594.7 0 548.8 0C503 0 457 0 411.2 0C365.3 0 319.7 0 274 0C228.3 0 182.7 0 137 0C91.3 0 45.7 0 22.8 0L0 0Z" fill="#ef5f67"></path><path d="M0 59L22.8 57C45.7 55 91.3 51 137 48.3C182.7 45.7 228.3 44.3 274 49C319.7 53.7 365.3 64.3 411.2 67C457 69.7 503 64.3 548.8 59.3C594.7 54.3 640.3 49.7 686 50.8C731.7 52 777.3 59 823 62.7C868.7 66.3 914.3 66.7 937.2 66.8L960 67L960 0L937.2 0C914.3 0 868.7 0 823 0C777.3 0 731.7 0 686 0C640.3 0 594.7 0 548.8 0C503 0 457 0 411.2 0C365.3 0 319.7 0 274 0C228.3 0 182.7 0 137 0C91.3 0 45.7 0 22.8 0L0 0Z" fill="#e34c67"></path><path d="M0 29L22.8 30C45.7 31 91.3 33 137 34.5C182.7 36 228.3 37 274 36.8C319.7 36.7 365.3 35.3 411.2 38.2C457 41 503 48 548.8 51.2C594.7 54.3 640.3 53.7 686 51.7C731.7 49.7 777.3 46.3 823 42.5C868.7 38.7 914.3 34.3 937.2 32.2L960 30L960 0L937.2 0C914.3 0 868.7 0 823 0C777.3 0 731.7 0 686 0C640.3 0 594.7 0 548.8 0C503 0 457 0 411.2 0C365.3 0 319.7 0 274 0C228.3 0 182.7 0 137 0C91.3 0 45.7 0 22.8 0L0 0Z" fill="#d53867"></path><path d="M0 24L22.8 22.8C45.7 21.7 91.3 19.3 137 20C182.7 20.7 228.3 24.3 274 27.2C319.7 30 365.3 32 411.2 30.2C457 28.3 503 22.7 548.8 19C594.7 15.3 640.3 13.7 686 14C731.7 14.3 777.3 16.7 823 20.5C868.7 24.3 914.3 29.7 937.2 32.3L960 35L960 0L937.2 0C914.3 0 868.7 0 823 0C777.3 0 731.7 0 686 0C640.3 0 594.7 0 548.8 0C503 0 457 0 411.2 0C365.3 0 319.7 0 274 0C228.3 0 182.7 0 137 0C91.3 0 45.7 0 22.8 0L0 0Z" fill="#c62368"></path></svg>