<svg id="visual" viewBox="0 0 960 300" width="960" height="300" xmlns="http://www.w3.org/2000/svg" xmlns:xlink="http://www.w3.org/1999/xlink" version="1.1"><rect x="0" y="0" width="960" height="300" fill="#001220"></rect><path d="M0 211L22.8 210.7C45.7 210.3 91.3 209.7 137 208.2C182.7 206.7 228.3 204.3 274 203.8C319.7 203.3 365.3 204.7 411.2 203.2C457 201.7 503 197.3 548.8 192C594.7 186.7 640.3 180.3 686 178.5C731.7 176.7 777.3 179.3 823 187.5C868.7 195.7 914.3 209.3 937.2 216.2L960 223L960 301L937.2 301C914.3 301 868.7 301 823 301C777.3 301 731.7 301 686 301C640.3 301 594.7 301 548.8 301C503 301 457 301 411.2 301C365.3 301 319.7 301 274 301C228.3 301 182.7 301 137 301C91.3 301 45.7 301 22.8 301L0 301Z" fill="#fa7268"></path><path d="M0 238L22.8 238C45.7 238 91.3 238 137 237C182.7 236 228.3 234 274 228.7C319.7 223.3 365.3 214.7 411.2 213.7C457 212.7 503 219.3 548.8 220.3C594.7 221.3 640.3 216.7 686 212.5C731.7 208.3 777.3 204.7 823 202.7C868.7 200.7 914.3 200.3 937.2 200.2L960 200L960 301L937.2 301C914.3 301 868.7 301 823 301C777.3 301 731.7 301 686 301C640.3 301 594.7 301 548.8 301C503 301 457 301 411.2 301C365.3 301 319.7 301 274 301C228.3 301 182.7 301 137 301C91.3 301 45.7 301 22.8 301L0 301Z" fill="#ef5f67"></path><path d="M0 249L22.8 248.8C45.7 248.7 91.3 248.3 137 249C182.7 249.7 228.3 251.3 274 250.5C319.7 249.7 365.3 246.3 411.2 243.8C457 241.3 503 239.7 548.8 236.3C594.7 233 640.3 228 686 229.3C731.7 230.7 777.3 238.3 823 239.5C868.7 240.7 914.3 235.3 937.2 232.7L960 230L960 301L937.2 301C914.3 301 868.7 301 823 301C777.3 301 731.7 301 686 301C640.3 301 594.7 301 548.8 301C503 301 457 301 411.2 301C365.3 301 319.7 301 274 301C228.3 301 182.7 301 137 301C91.3 301 45.7 301 22.8 301L0 301Z" fill="#e34c67"></path><path d="M0 240L22.8 240.7C45.7 241.3 91.3 242.7 137 242.7C182.7 242.7 228.3 241.3 274 243.2C319.7 245 365.3 250 411.2 254C457 258 503 261 548.8 262.3C594.7 263.7 640.3 263.3 686 262.8C731.7 262.3 777.3 261.7 823 261.2C868.7 260.7 914.3 260.3 937.2 260.2L960 260L960 301L937.2 301C914.3 301 868.7 301 823 301C777.3 301 731.7 301 686 301C640.3 301 594.7 301 548.8 301C503 301 457 301 411.2 301C365.3 301 319.7 301 274 301C228.3 301 182.7 301 137 301C91.3 301 45.7 301 22.8 301L0 301Z" fill="#d53867"></path><path d="M0 263L22.8 266.2C45.7 269.3 91.3 275.7 137 277.8C182.7 280 228.3 278 274 278.5C319.7 279 365.3 282 411.2 282.5C457 283 503 281 548.8 280.3C594.7 279.7 640.3 280.3 686 279.8C731.7 279.3 777.3 277.7 823 274.5C868.7 271.3 914.3 266.7 937.2 264.3L960 262L960 301L937.2 301C914.3 301 868.7 301 823 301C777.3 301 731.7 301 686 301C640.3 301 594.7 301 548.8 301C503 301 457 301 411.2 301C365.3 301 319.7 301 274 301C228.3 301 182.7 301 137 301C91.3 301 45.7 301 22.8 301L0 301Z" fill="#c62368"></path></svg>